<?xml version="1.0" encoding="UTF-8" standalone="no"?>
<!-- Created with Inkscape (http://www.inkscape.org/) -->

<svg
   xmlns:dc="http://purl.org/dc/elements/1.1/"
   xmlns:cc="http://creativecommons.org/ns#"
   xmlns:rdf="http://www.w3.org/1999/02/22-rdf-syntax-ns#"
   xmlns:svg="http://www.w3.org/2000/svg"
   xmlns="http://www.w3.org/2000/svg"
   xmlns:sodipodi="http://sodipodi.sourceforge.net/DTD/sodipodi-0.dtd"
   xmlns:inkscape="http://www.inkscape.org/namespaces/inkscape"
   width="200"
   height="369.03"
   id="svg2"
   version="1.1"
   inkscape:version="0.92.2 (5c3e80d, 2017-08-06)"
   sodipodi:docname="muscle-19.svg">
  <defs
     id="defs4" />
  <sodipodi:namedview
     id="base"
     pagecolor="#ffffff"
     bordercolor="#666666"
     borderopacity="1.0"
     inkscape:pageopacity="0"
     inkscape:pageshadow="2"
     inkscape:zoom="1.979899"
     inkscape:cx="105.95932"
     inkscape:cy="202.70285"
     inkscape:document-units="px"
     inkscape:current-layer="layer3"
     showgrid="false"
     fit-margin-top="0"
     fit-margin-left="0"
     fit-margin-right="0"
     fit-margin-bottom="0"
     inkscape:window-width="1440"
     inkscape:window-height="813"
     inkscape:window-x="0"
     inkscape:window-y="23"
     inkscape:window-maximized="0"
     showguides="false" />
  <metadata
     id="metadata7">
    <rdf:RDF>
      <cc:Work
         rdf:about="">
        <dc:format>image/svg+xml</dc:format>
        <dc:type
           rdf:resource="http://purl.org/dc/dcmitype/StillImage" />
        <dc:title />
      </cc:Work>
    </rdf:RDF>
  </metadata>
  <g
     inkscape:label="Ebene 1"
     inkscape:groupmode="layer"
     id="layer1"
     transform="translate(-54.28571,-335.71492)"
     style="display:inline">
    <g
       inkscape:groupmode="layer"
       id="layer3"
       inkscape:label="muscle-19"
       style="display:inline">
      <path
         style="opacity:0.525;fill:#fc0000;fill-opacity:1;stroke:#000000;stroke-width:1px;stroke-linecap:butt;stroke-linejoin:miter;stroke-opacity:1"
         d="m 133.54308,409.6603 c -1.67039,0.5451 -3.45431,0.82072 -5.01116,1.6353 -0.53785,0.28142 -0.58092,1.086 -1.01015,1.51523 -0.2662,0.2662 -0.69692,0.29626 -1.01015,0.50508 -0.74321,0.49547 -1.2771,1.52483 -2.02031,2.0203 -0.31323,0.20883 -0.70898,0.2792 -1.01015,0.50508 -0.70367,0.52775 -1.3831,1.3831 -2.02031,2.02031 -2.1846,2.1846 0.13381,0.0792 -2.0203,1.51522 -0.19811,0.13208 -0.30697,0.37301 -0.50508,0.50508 -0.62647,0.41765 -1.39383,0.59251 -2.0203,1.01015 -0.19811,0.13208 -0.30697,0.37301 -0.50508,0.50508 -0.31323,0.20882 -0.69692,0.29625 -1.01015,0.50508 -0.43583,0.29055 -1.12072,1.12072 -1.51523,1.51522 -0.16836,0.16836 -0.33672,0.33672 -0.50508,0.50508 -0.16835,0.16836 -0.39859,0.29212 -0.50507,0.50508 -0.0753,0.15058 0.11905,0.38603 0,0.50507 -0.11905,0.11905 -0.35449,-0.0753 -0.50508,0 -2.10201,1.05101 0.53995,-0.0349 -0.50507,1.01016 -0.11905,0.11904 -0.3545,-0.0753 -0.50508,0 -2.10201,1.051 0.53994,-0.0349 -0.50508,1.01015 -0.11905,0.11905 -0.35449,-0.0753 -0.50507,0 -0.42592,0.21296 -0.58424,0.79719 -1.01016,1.01015 -0.15058,0.0753 -0.38603,-0.11905 -0.50507,0 -0.11905,0.11905 0.0753,0.35449 0,0.50508 -0.10648,0.21296 -0.33672,0.33672 -0.50508,0.50507 -0.16836,0.16836 -0.29212,0.3986 -0.50508,0.50508 -0.69668,0.34834 -0.45177,-0.61167 -1.01015,0.50508 -0.0753,0.15058 0.11905,0.38603 0,0.50507 -0.23809,0.2381 -0.77206,-0.23809 -1.01015,0 -0.11905,0.11905 0.0753,0.35449 0,0.50508 -0.24851,0.49701 -1.7718,1.52329 -2.02031,2.0203 -0.15058,0.30117 0.2381,0.77206 0,1.01016 -0.11904,0.11904 -0.38602,-0.11905 -0.50507,0 -0.2381,0.23809 0.23809,0.77205 0,1.01015 -0.11905,0.11905 -0.38603,-0.11905 -0.50508,0 -0.23809,0.23809 0.2381,0.77206 0,1.01015 -0.11905,0.11905 -0.38603,-0.11905 -0.50507,0 -0.2381,0.2381 0.23809,0.77206 0,1.01015 -0.11905,0.11905 -0.38603,-0.11904 -0.50508,0 -0.11905,0.11905 0,0.33672 0,0.50508 0,0.16836 -0.16836,0.50508 0,0.50508 0.16286,0 0.72951,-0.86984 1.01015,-1.01016 0.15059,-0.0753 0.35449,0.0753 0.50508,0 0.49701,-0.2485 1.52329,-1.7718 2.0203,-2.0203 0.15059,-0.0753 0.35449,0.0753 0.50508,0 0.60609,-0.30305 0.90914,-1.21218 1.51523,-1.51523 0.15058,-0.0753 0.35449,0.0753 0.50507,0 0.21296,-0.10648 0.29212,-0.3986 0.50508,-0.50508 0.15059,-0.0753 0.35449,0.0753 0.50508,0 0.60609,-0.30304 0.90913,-1.21218 1.51523,-1.51522 0.15058,-0.0753 0.35449,0.0753 0.50507,0 0.21296,-0.10648 0.2792,-0.42979 0.50508,-0.50508 0.31944,-0.10648 0.69071,0.10648 1.01015,0 0.45175,-0.15059 0.58424,-0.79719 1.01015,-1.01015 0.15059,-0.0753 0.3545,0.0753 0.50508,0 0.21296,-0.10648 0.29212,-0.3986 0.50508,-0.50508 0.15058,-0.0753 0.35449,0.0753 0.50507,0 0.21296,-0.10648 0.29212,-0.3986 0.50508,-0.50508 0.15058,-0.0753 0.38603,0.11905 0.50507,0 0.11905,-0.11904 -0.11904,-0.38602 0,-0.50507 0.11905,-0.11905 0.3545,0.0753 0.50508,0 0.42592,-0.21296 0.58424,-0.7972 1.01015,-1.01015 0.15059,-0.0753 0.38603,0.11904 0.50508,0 0.11905,-0.11905 -0.11905,-0.38603 0,-0.50508 0.11905,-0.11905 0.35449,0.0753 0.50508,0 0.42591,-0.21296 0.58423,-0.7972 1.01015,-1.01015 0.15058,-0.0753 0.38603,0.11904 0.50508,0 0.11904,-0.11905 -0.11905,-0.38603 0,-0.50508 0.11904,-0.11905 0.38602,0.11905 0.50507,0 0.11905,-0.11905 -0.11905,-0.38603 0,-0.50508 0.11905,-0.11904 0.35449,0.0753 0.50508,0 0.21296,-0.10648 0.29212,-0.39859 0.50507,-0.50507 0.15059,-0.0753 0.38603,0.11905 0.50508,0 0.11905,-0.11905 -0.11905,-0.38603 0,-0.50508 0.11905,-0.11905 0.38603,0.11905 0.50508,0 0.11904,-0.11905 -0.11905,-0.38603 0,-0.50508 0.11904,-0.11904 0.35449,0.0753 0.50507,0 0.21296,-0.10647 0.29212,-0.39859 0.50508,-0.50507 0.15058,-0.0753 0.38603,0.11905 0.50508,0 0.11904,-0.11905 -0.11905,-0.38603 0,-0.50508 0.11904,-0.11905 0.35449,0.0753 0.50507,0 0.21296,-0.10648 0.29212,-0.39859 0.50508,-0.50507 0.15058,-0.0753 0.35449,0.0753 0.50507,0 0.21296,-0.10648 0.29212,-0.3986 0.50508,-0.50508 0.15059,-0.0753 0.35449,0.0753 0.50508,0 0.21296,-0.10648 0.29211,-0.3986 0.50507,-0.50508 0.15059,-0.0753 0.3545,0.0753 0.50508,0 0.21296,-0.10648 0.29212,-0.39859 0.50508,-0.50507 0.15058,-0.0753 0.38603,0.11905 0.50507,0 0.11905,-0.11905 -0.11904,-0.38603 0,-0.50508 0.11905,-0.11905 0.38603,0.11905 0.50508,0 0.11905,-0.11905 -0.11905,-0.38603 0,-0.50508 0.23809,-0.23809 0.77206,0.2381 1.01015,0 0.11905,-0.11904 -0.11905,-0.38602 0,-0.50507 0.2381,-0.2381 0.77206,0.23809 1.01015,0 0.11905,-0.11905 -0.0753,-0.35449 0,-0.50508 0.10648,-0.21296 0.3986,-0.29212 0.50508,-0.50507 0.0753,-0.15059 -0.0753,-0.3545 0,-0.50508 0.21296,-0.42592 0.79719,-0.58424 1.01015,-1.01015 0.0753,-0.15059 -0.11904,-0.38603 0,-0.50508 0.2381,-0.2381 0.77206,0.2381 1.01016,0 0.0203,-0.0203 0,-1.83482 0,-2.0203 0,-1.1845 -0.11905,0.23809 0.50507,-1.01016 0.0753,-0.15058 0,-0.33671 0,-0.50507 0,-1.25179 -0.0312,-1.10382 -0.54468,-2.64546 z"
         id="path835"
         inkscape:connector-curvature="0" />
      <path
         style="opacity:0.522;fill:#fc0000;fill-opacity:1;stroke:#000000;stroke-width:1px;stroke-linecap:butt;stroke-linejoin:miter;stroke-opacity:1"
         d="m 184.83441,416.50265 c -0.0797,-0.0521 -0.286,-0.23908 -0.23902,-0.15628 -0.0493,1.11702 1.04828,1.31989 1.51523,2.0203 0.20882,0.31324 0.29625,0.69692 0.50507,1.01015 0.14273,0.21409 1.30626,1.41075 1.51523,1.51523 0.15059,0.0753 0.35449,-0.0753 0.50508,0 0.42592,0.21296 0.58423,0.7972 1.01015,1.01016 0.15059,0.0753 0.35449,-0.0753 0.50508,0 2.102,1.051 -0.53995,-0.0349 0.50507,1.01015 0.11905,0.11905 0.38603,-0.11905 0.50508,0 0.11905,0.11905 -0.11905,0.38603 0,0.50507 0.11905,0.11905 0.38603,-0.11904 0.50508,0 0.23809,0.2381 -0.2381,0.77206 0,1.01016 0.11904,0.11905 0.38602,-0.11905 0.50507,0 0.11905,0.11905 -0.0753,0.35449 0,0.50507 0.10648,0.21296 0.3986,0.29212 0.50508,0.50508 0.0753,0.15058 -0.11905,0.38603 0,0.50508 0.11905,0.11904 0.38603,-0.11905 0.50508,0 0.11904,0.11904 -0.11905,0.38602 0,0.50507 0.26619,0.2662 0.653,0.38603 1.01015,0.50508 0.31944,0.10648 0.77205,-0.2381 1.01015,0 0.11905,0.11905 -0.11905,0.38603 0,0.50508 0.2381,0.23809 0.77206,-0.2381 1.01015,0 0.11905,0.11904 -0.11904,0.38602 0,0.50507 0.2381,0.2381 0.70899,-0.15058 1.01016,0 0.42591,0.21296 0.55839,0.85957 1.01015,1.01015 2.29925,0 0.0289,-0.23809 1.51523,0.50508 0.45175,0.22588 1.06347,-0.22588 1.51523,0 0.15058,0.0753 -0.11905,0.38603 0,0.50508 0.23809,0.23809 0.77205,-0.2381 1.01015,0 0.11905,0.11904 -0.15059,0.42978 0,0.50507 0.45175,0.22588 1.06347,-0.22587 1.51523,0 0.21296,0.10648 0.29211,0.3986 0.50507,0.50508 0.15059,0.0753 0.35449,-0.0753 0.50508,0 0.21296,0.10648 0.29212,0.3986 0.50508,0.50508 0.20025,0.10012 1.41197,-0.10326 1.51522,0 0.11905,0.11904 -0.11904,0.38602 0,0.50507 0.25254,0.25254 1.2627,-0.25254 1.51523,0 0.11905,0.11905 -0.11904,0.38603 0,0.50508 0.11905,0.11904 0.38603,-0.11905 0.50508,0 0.11905,0.11904 -0.11905,0.38603 0,0.50507 0.11905,0.11905 0.38603,-0.11904 0.50508,0 0.11904,0.11905 -0.11905,0.38603 0,0.50508 0.11904,0.11905 0.38602,-0.11905 0.50507,0 0.11905,0.11905 -0.11905,0.38603 0,0.50508 0.11905,0.11904 0.33672,0 0.50508,0 0,0.16836 -0.0753,0.35449 0,0.50507 0.10648,0.21296 0.33672,0.33672 0.50507,0.50508 0.16836,0.16836 0.29212,0.3986 0.50508,0.50508 0.15059,0.0753 0.38603,-0.11905 0.50508,0 0.11904,0.11904 -0.11905,0.38602 0,0.50507 0.23809,0.2381 0.77205,-0.23809 1.01015,0 0.11905,0.11905 -0.11905,0.38603 0,0.50508 0.0505,0.0505 1.46472,0.0505 1.51523,0 0.49181,-0.49181 -0.86586,-1.22664 -1.01015,-1.51523 0,-1.34687 0.16835,0.16836 -0.50508,-0.50508 -0.11905,-0.11904 0.0753,-0.35449 0,-0.50507 -0.10648,-0.21296 -0.33672,-0.33672 -0.50508,-0.50508 -0.16836,-0.16836 -0.29211,-0.3986 -0.50507,-0.50508 -0.15059,-0.0753 -0.38603,0.11905 -0.50508,0 -0.11905,-0.11904 0.11905,-0.38602 0,-0.50507 -0.11905,-0.11905 -0.35449,0.0753 -0.50508,0 -2.102,-1.05101 0.53995,0.0349 -0.50507,-1.01015 -0.11905,-0.11905 -0.34536,0.0532 -0.50508,0 -0.91733,-0.30578 -0.93734,-0.43227 -1.51523,-1.01016 -0.16836,-0.16836 -0.33671,-0.33671 -0.50507,-0.50507 -0.16836,-0.16836 -0.3986,-0.29212 -0.50508,-0.50508 -0.34834,-0.69668 0.61168,-0.45178 -0.50508,-1.01015 -0.15058,-0.0753 -0.42978,0.15058 -0.50507,0 -0.15059,-0.30117 0.15058,-0.70899 0,-1.01015 -0.0753,-0.15059 -0.38603,0.11904 -0.50508,0 -0.11905,-0.11905 0.0753,-0.3545 0,-0.50508 -0.30304,-0.60609 -1.21218,-0.90914 -1.51523,-1.51523 -0.0753,-0.15059 0.0753,-0.35449 0,-0.50508 -1.051,-2.102 0.0349,0.53995 -1.01015,-0.50507 -0.11905,-0.11905 0.0753,-0.35449 0,-0.50508 -0.10648,-0.21296 -0.33672,-0.33672 -0.50508,-0.50508 -0.16835,-0.16835 -0.29211,-0.39859 -0.50507,-0.50507 -0.15059,-0.0753 -0.35449,0.0753 -0.50508,0 -0.21296,-0.10648 -0.29212,-0.3986 -0.50507,-0.50508 -0.15059,-0.0753 -0.38603,0.11905 -0.50508,0 -0.11905,-0.11905 0.11905,-0.38603 0,-0.50507 -0.2381,-0.2381 -0.77206,0.23809 -1.01015,0 -0.11905,-0.11905 0.11904,-0.38603 0,-0.50508 -0.11905,-0.11905 -0.3545,0.0753 -0.50508,0 -0.21296,-0.10648 -0.29212,-0.3986 -0.50508,-0.50508 -0.15058,-0.0753 -0.38602,0.11905 -0.50507,0 -0.11905,-0.11904 0.11905,-0.38602 0,-0.50507 -0.2381,-0.2381 -0.77206,0.23809 -1.01015,0 -0.11905,-0.11905 0.11904,-0.38603 0,-0.50508 -0.11905,-0.11905 -0.38603,0.11905 -0.50508,0 -0.11905,-0.11905 0.11905,-0.38603 0,-0.50508 -0.11905,-0.11904 -0.38603,0.11905 -0.50508,0 -0.11904,-0.11904 0.11905,-0.38602 0,-0.50507 -0.11904,-0.11905 -0.35449,0.0753 -0.50507,0 -0.21296,-0.10648 -0.29212,-0.3986 -0.50508,-0.50508 -0.15058,-0.0753 -0.50508,0.16836 -0.50508,0 0,-0.16836 0.50508,0.16836 0.50508,0 0,-1.051 -0.7083,-0.20322 -1.01015,-0.50507 -0.11905,-0.11905 0.11905,-0.38603 0,-0.50508 -0.11905,-0.11905 -0.38603,0.11905 -0.50508,0 -0.11905,-0.11905 0.11905,-0.38603 0,-0.50508 -0.11905,-0.11904 -0.38603,0.11905 -0.50507,0 -0.11905,-0.11904 0.11904,-0.38603 0,-0.50507 -0.11905,-0.11905 -0.3545,0.0753 -0.50508,0 -0.21296,-0.10648 -0.29212,-0.3986 -0.50508,-0.50508 -0.15058,-0.0753 -0.38603,0.11905 -0.50507,0 -0.11905,-0.11905 0.11904,-0.38603 0,-0.50508 -0.11905,-0.11904 -0.3545,0.0753 -0.50508,0 -0.21296,-0.10648 -0.29212,-0.39859 -0.50508,-0.50507 -0.15058,-0.0753 -0.38602,0.11905 -0.50507,0 -0.11905,-0.11905 0.11905,-0.38603 0,-0.50508 -0.11905,-0.11905 -0.38603,0.11905 -0.50508,0 -0.11905,-0.11905 0.11905,-0.38603 0,-0.50507 -0.11905,-0.11905 -0.35449,0.0753 -0.50508,0 -0.21295,-0.10648 -0.29211,-0.3986 -0.50507,-0.50508 -0.15059,-0.0753 -0.35449,0.0753 -0.50508,0 -0.21296,-0.10648 -0.29212,-0.3986 -0.50507,-0.50508 -0.15059,-0.0753 -0.3545,0.0753 -0.50508,0 -0.21296,-0.10648 -0.29212,-0.39859 -0.50508,-0.50507 -0.15058,-0.0753 -0.35449,0.0753 -0.50507,0 -0.21296,-0.10648 -0.29212,-0.3986 -0.50508,-0.50508 -0.1036,-0.0518 -1.444,-0.0712 -1.51523,0 -0.11905,0.11905 0.11905,0.38603 0,0.50508 -0.11905,0.11904 -0.38603,-0.11905 -0.50507,0 -0.11905,0.11904 0.0753,0.35449 0,0.50507 -0.10648,0.21296 -0.3986,0.29212 -0.50508,0.50508 -0.0769,0.15371 0,1.28776 0,1.51523 0,0.16836 0.16836,0.50507 0,0.50507 -0.16836,0 0,-0.67343 0,-0.50507 0,0.33672 -0.24378,0.77787 0,1.01015 0.45243,0.43109 1.1695,0.44091 1.75425,0.66136 z"
         id="path837"
         inkscape:connector-curvature="0" />
    </g>
  </g>
  <g
     inkscape:groupmode="layer"
     id="layer2"
     inkscape:label="muscle-17"
     style="display:inline" />
</svg>
